<?xml version="1.0"?>
<svg id="Capa_1" data-name="Capa 1" xmlns="http://www.w3.org/2000/svg" width="2802.9" height="1831.2" xmlns:xlink="http://www.w3.org/1999/xlink" viewBox="0 0 2802.9 1831.2">
  <defs>
    <radialGradient id="Degradado_sin_nombre_20" data-name="Degradado sin nombre 20" cx="2063.55" cy="486.7" fx="2063.55" fy="486.7" r="434.86" gradientUnits="userSpaceOnUse">
      <stop offset="0" stop-color="#999faf"></stop>
      <stop offset=".65" stop-color="#716e77"></stop>
      <stop offset="1" stop-color="#605960"></stop>
    </radialGradient>
    <radialGradient id="Degradado_sin_nombre_21" data-name="Degradado sin nombre 21" cx="1251.69" cy="1125.03" fx="1251.69" fy="1125.03" r="441.75" gradientUnits="userSpaceOnUse">
      <stop offset="0" stop-color="#999faf"></stop>
      <stop offset=".65" stop-color="#716e77"></stop>
      <stop offset="1" stop-color="#605960"></stop>
    </radialGradient>
    <radialGradient id="Degradado_sin_nombre_22" data-name="Degradado sin nombre 22" cx="2265.49" cy="1545.89" fx="2265.49" fy="1545.89" r="430.24" gradientUnits="userSpaceOnUse">
      <stop offset="0" stop-color="#999faf"></stop>
      <stop offset=".65" stop-color="#716e77"></stop>
      <stop offset="1" stop-color="#605960"></stop>
    </radialGradient>
    <linearGradient id="linear-gradient" x1="1274.18" y1="1336.34" x2="1671.81" y2="1336.34" gradientUnits="userSpaceOnUse">
      <stop offset="0" stop-color="#999faf"></stop>
      <stop offset=".65" stop-color="#716e77"></stop>
      <stop offset="1" stop-color="#605960"></stop>
    </linearGradient>
    <linearGradient id="linear-gradient-2" x1="2308.09" y1="1215.53" x2="2493.56" y2="1215.53" xlink:href="#linear-gradient"></linearGradient>
    <linearGradient id="linear-gradient-3" x1="1636.3" y1="469.96" x2="2007.3" y2="469.96" xlink:href="#linear-gradient"></linearGradient>
    <linearGradient id="linear-gradient-4" x1="193.1" y1="18.11" x2="193.1" y2="671.22" xlink:href="#linear-gradient"></linearGradient>
  </defs>
  <g>
    <path d="M1660.88,124.22c5.9-4.07,11.65-8.37,17.71-12.17,69.23-43.35,143.19-74.48,224.64-85.66,114.27-15.69,219.53,9.51,313.72,75.12,130.95,91.21,207.17,218.96,236.55,374.27,22,116.26,15.57,231.92-20,345.38-14.16,45.16-35.35,87-59.63,127.39-.87,1.44-3.21,2-4.87,2.97-.49-2.18-1.7-4.47-1.37-6.52,5.84-36.26,8.37-72.7,7.09-109.44-2.53-72.34-21.42-140.58-50.36-206.51-45.98-104.75-112.96-194.54-195-273.4-80.57-77.44-170.68-141.14-274.55-183.69-59.23-24.26-120.5-41.41-184.96-44.65-2.78-.14-5.54-.64-8.31-.98-.22-.71-.44-1.42-.66-2.13Z" fill="url(#Degradado_sin_nombre_20)" stroke-width="0"></path>
    <path d="M1584.86,602.57c-2.5.82-4.94,1.97-7.5,2.42-81.05,14.2-149.03,53.71-208.59,108.82-65.27,60.4-109.01,135.31-142.6,216.63-35.9,86.91-54.63,178-60.66,271.41-3.39,52.51-4.04,105.45-1.77,158.02,4.15,96.31,21.2,190.58,54.03,281.6,1.19,3.31,1.58,6.91,2.34,10.38-.69.53-1.38,1.05-2.07,1.58-10.77-6.73-21.75-13.16-32.28-20.25-63.08-42.46-119.48-92.2-164.62-153.78-71.65-97.76-109.48-206.57-101.76-328.59,6.42-101.54,40.94-193.97,98.01-277.94,64.28-94.57,147.86-167.19,251.46-215.64,93.26-43.61,191.36-65.56,294.86-59.64,5.04.29,10.12.15,15.14.57,2.08.18,4.08,1.32,6.12,2.03l-.12,2.39Z" fill="url(#Degradado_sin_nombre_21)" stroke-width="0"></path>
    <path d="M1729.9,1532.37c3.68,2.79,7.44,5.49,11.04,8.38,67.32,53.94,144.7,83.95,229.48,96.09,90.29,12.93,179.02,3.81,266.07-21.62,162.96-47.61,308.68-127.99,438.23-237.08,41.18-34.68,78.02-74.52,116.95-111.89,2.49-2.39,5.92-3.8,8.91-5.67.81,3.43,2.39,6.88,2.31,10.29-3.26,131.76-35.14,254.7-113.45,362.9-67.46,93.2-159.34,150.19-269.61,179.08-77.45,20.29-156.04,22.64-235.03,12.47-153.09-19.72-279.63-91.23-386.76-200.1-24.45-24.85-46.58-51.49-64.89-81.21-2-3.24-3.4-6.86-5.07-10.3.61-.45,1.21-.89,1.82-1.34Z" fill="url(#Degradado_sin_nombre_22)" stroke-width="0"></path>
    <path d="M2043.31,1032.68c.22,88.84-73.13,162.3-162.11,162.36-88.25.06-162-73.77-162.32-162.5-.32-89.18,73.75-164.02,162.87-164.59,89.18-.56,161.33,73,161.56,164.72Z" fill="#f28dbd" stroke-width="0"></path>
    <path d="M1671.81,1468.05c-3.42,1.07-5.65,2.17-7.98,2.44-70.44,8.09-140.5,8.36-209.37-11.48-62.28-17.93-115.71-51.05-161.68-96.31-4.82-4.74-8.22-12.13-9.7-18.85-9.79-44.47-10.77-89.49-6.46-134.69.9-9.45,4.89-12.82,15.48-12.04,25.37,1.89,49.82,7.55,73,18.42,120.44,56.48,219.01,139.9,300.86,243.96,1.88,2.39,3.46,5.03,5.86,8.53Z" fill="url(#linear-gradient)" stroke-width="0"></path>
    <path d="M2364.96,990.1c12.99,13.67,26.11,25.15,36.45,38.76,60.54,79.64,92.31,169.5,92.15,269.83-.03,17.15-4.43,34.32-7.15,51.42-1.88,11.8-9.02,19.49-19.65,24.88-40.22,20.37-80.2,41.2-120.38,61.63-14.26,7.25-18.45,6.24-22.48-9.28-5.75-22.2-11.34-44.81-13.33-67.57-7.94-90.88,3.91-180.19,25.29-268.38,7.42-30.61,16.71-60.76,25.21-91.11.73-2.62,1.93-5.11,3.88-10.18Z" fill="url(#linear-gradient-2)" stroke-width="0"></path>
    <path d="M1636.3,599.46c2.51-10.28,4.06-18.91,6.74-27.18,21.33-65.97,61.16-119.12,114.61-162.26,45.02-36.34,96.08-59.84,153.56-68.92,10.42-1.65,19.1-.37,26.9,7.21,19.7,19.1,39.98,37.61,59.44,56.94,12.98,12.89,13.12,29.22-.35,41.71-17.31,16.04-34.72,32.38-54.08,45.71-75.41,51.94-159.02,84.08-249.16,99.46-14.61,2.49-29.29,4.56-43.96,6.66-3.65.52-7.4.39-13.71.67Z" fill="url(#linear-gradient-3)" stroke-width="0"></path>
  </g>
  <rect width="386.21" height="686.59" rx="14.4" ry="14.4" fill="url(#linear-gradient-4)" stroke-width="0"></rect>
  <path d="M340.15,985.9c.22,88.84-73.13,162.3-162.11,162.36-88.25.06-162-73.77-162.32-162.5-.32-89.18,73.75-164.02,162.87-164.59,89.18-.56,161.33,73,161.56,164.72Z" fill="#f28dbd" stroke-width="0"></path>
</svg>